<mxfile host="app.diagrams.net" modified="2024-04-26T03:43:12.903Z" agent="Mozilla/5.0 (Windows NT 10.0; Win64; x64) AppleWebKit/537.36 (KHTML, like Gecko) Chrome/124.0.0.0 Safari/537.36" version="24.3.0" etag="iNUdfdet4b9LXH8kAjxS" type="github">
  <diagram name="Page-1" id="T7L9uM9P5LxlK296eDZT">
    <mxGraphModel>
      <root>
        <mxCell id="0" />
        <mxCell id="1" parent="0" />
      </root>
    </mxGraphModel>
  </diagram>
</mxfile>
